Coordinates
version=1
nRows=17
nColumns=34
inDegrees=yes

Units are S.I. units (second, meters, Newtons, ...)
If the header above contains a line with 'inDegrees', this indicates whether rotational values are in degrees (yes) or radians (no).

endheader
time	pelvis_tilt	pelvis_list	pelvis_rotation	pelvis_tx	pelvis_ty	pelvis_tz	hip_flexion_r	hip_adduction_r	hip_rotation_r	knee_angle_r	ankle_angle_r	subtalar_angle_r	mtp_angle_r	hip_flexion_l	hip_adduction_l	hip_rotation_l	knee_angle_l	ankle_angle_l	subtalar_angle_l	mtp_angle_l	lumbar_extension	lumbar_bending	lumbar_rotation	arm_flex_r	arm_add_r	arm_rot_r	elbow_flex_r	pro_sup_r	arm_flex_l	arm_add_l	arm_rot_l	elbow_flex_l	pro_sup_l
     29.95000000	    -14.16772103	     -3.65730916	    212.18398093	      0.18316850	      1.06426654	     -0.19159826	    -18.12673287	     -3.11070748	     28.17056824	      2.88106004	      2.76560521	      5.86639119	      0.00000000	    -17.36649573	     -2.83292617	    -39.99999995	     15.42151297	     10.32160141	     -5.55030638	      0.00000000	     -3.10526996	      4.44238641	     26.30880249	     19.45652402	    -22.10012862	     27.99488658	     30.17485850	    119.74817918	     10.37660505	    -17.45526395	     43.29381696	     81.20799555	    119.74817918
     29.96666670	    -14.15565674	     -3.68381405	    212.25174419	      0.18341823	      1.06427331	     -0.19169592	    -18.12891147	     -3.10975170	     28.23993855	      2.89020650	      2.76623626	      5.83964232	      0.00000000	    -17.36430996	     -2.81684343	    -39.99999995	     15.39250417	     10.29021249	     -5.57525263	      0.00000000	     -3.10436450	      4.47661021	     26.38011233	     19.43759559	    -22.14924343	     28.08823711	     30.13826388	    119.74817918	     10.39843381	    -17.17447737	     43.41983983	     81.42397119	    119.74817918
     29.98333330	    -14.21738296	     -3.67759868	    211.83723248	      0.18307386	      1.06437938	     -0.19235365	    -18.16558242	     -3.17063130	     29.24999436	      2.81743828	      2.63777542	      5.05356879	      0.00000000	    -17.56986868	     -2.59657513	    -39.99999995	     15.07856470	      9.90054109	     -6.16271755	      0.00000000	     -3.12947413	      4.61183070	     27.12749996	     19.49057456	    -22.73138389	     29.87102124	     30.10219574	    119.74817918	     10.68814884	    -17.07864744	     44.24157315	     81.71356025	    119.74817918
     30.00000000	    -14.21168921	     -3.72057008	    211.90160012	      0.18301513	      1.06444235	     -0.19258763	    -18.19243162	     -3.16002791	     29.25595521	      2.84070793	      2.56435232	      4.98813206	      0.00000000	    -17.57811006	     -2.60120399	    -39.99999995	     15.10220244	      9.90744443	     -6.13983013	      0.00000000	     -3.11272190	      4.62302227	     27.30366156	     19.36892329	    -22.82581010	     29.93946576	     29.94933923	    119.74817918	     10.66499094	    -16.85061158	     44.22996750	     82.00901386	    119.74817918
     30.01666670	    -14.20663729	     -3.73963789	    211.90258518	      0.18283397	      1.06445124	     -0.19298743	    -18.20663390	     -3.13750783	     29.27043769	      2.82836572	      2.53396032	      4.90213809	      0.00000000	    -17.59188774	     -2.60235137	    -39.99999995	     15.09990403	      9.92026965	     -6.09521224	      0.00000000	     -3.09041388	      4.67606499	     27.51862710	     19.28840441	    -22.93419121	     30.03985440	     29.80799242	    119.74817918	     10.63026168	    -16.64876573	     44.30309115	     82.33667284	    119.74817918
     30.03333330	    -14.18613676	     -3.77827510	    211.95047719	      0.18245692	      1.06447829	     -0.19368839	    -18.22256552	     -3.09567859	     29.28070428	      2.82893962	      2.52997518	      4.89332580	      0.00000000	    -17.59583831	     -2.62085991	    -39.99999995	     15.08689828	      9.92241387	     -6.08877417	      0.00000000	     -3.06609432	      4.65918349	     27.60202052	     19.29945918	    -22.94433170	     30.05997249	     29.79011766	    119.74817918	     10.59329706	    -16.54636933	     44.34600562	     82.41394904	    119.74817918
     30.05000000	    -14.20439520	     -3.70599106	    211.74358083	      0.18190696	      1.06446745	     -0.19414716	    -18.16809021	     -3.03023637	     29.69705153	      2.84672468	      2.37261205	      4.63697008	      0.00000000	    -17.69313367	     -2.56805675	    -39.99999995	     14.88954045	     10.02432696	     -5.97751687	      0.00000000	     -2.97650798	      4.85080692	     28.14275286	     19.10441272	    -23.27227688	     30.73591466	     29.46280851	    119.74817918	     10.64758530	    -16.42092442	     44.79937464	     82.99264597	    119.74817918
     30.06666670	    -14.18402247	     -3.76205927	    211.79152641	      0.18173600	      1.06446322	     -0.19445393	    -18.21487558	     -3.04054876	     29.67011785	      2.81210342	      2.41059536	      4.49352259	      0.00000000	    -17.67689711	     -2.56985707	    -39.99999995	     14.94389368	      9.95813474	     -5.96101740	      0.00000000	     -2.94688194	      4.91164065	     28.31469648	     19.00428835	    -23.46139125	     30.84268987	     29.31588447	    119.74817918	     10.62438705	    -16.17795434	     44.83268880	     83.14571705	    119.74817918
     30.08333330	    -14.15941448	     -3.80949329	    211.79324468	      0.18129489	      1.06450014	     -0.19530958	    -18.21868410	     -3.01864400	     29.67132772	      2.80899024	      2.41027626	      4.49315766	      0.00000000	    -17.67368101	     -2.57816932	    -39.99999995	     14.93957284	      9.95776561	     -5.96069798	      0.00000000	     -2.94266541	      4.92535753	     28.32097997	     19.00313624	    -23.46827546	     30.84406881	     29.31219154	    119.74817918	     10.61757933	    -16.16421863	     44.83810945	     83.15253192	    119.74817918
     30.10000000	    -14.13549509	     -3.72043964	    211.67240836	      0.18066523	      1.06459103	     -0.19546764	    -18.15672652	     -2.95127585	     30.05098044	      2.80607173	      2.17608053	      4.14260736	      0.00000000	    -17.71017707	     -2.56409735	    -39.99999995	     14.76963351	      9.94592965	     -5.84721296	      0.00000000	     -2.71638519	      5.15214174	     28.92865580	     18.68271562	    -23.88276085	     31.53403810	     28.96114222	    119.74817918	     10.55068969	    -15.83319463	     45.24004362	     83.49866494	    119.74817918
     30.11666670	    -14.11405319	     -3.79250152	    211.75155019	      0.18043339	      1.06466685	     -0.19601459	    -18.19607594	     -2.95193719	     30.03374526	      2.80027318	      2.22603658	      4.04754133	      0.00000000	    -17.68678711	     -2.58903995	    -39.99999995	     14.82316654	      9.89053886	     -5.83928472	      0.00000000	     -2.70884171	      5.17404186	     29.03433409	     18.58822726	    -24.02778802	     31.58111181	     28.84271458	    119.74817918	     10.49932479	    -15.58938002	     45.26974061	     83.63693756	    119.74817918
     30.13333330	    -14.08903176	     -3.84705688	    211.75220860	      0.17989882	      1.06481283	     -0.19701960	    -18.19948362	     -2.93951858	     30.03370538	      2.79902512	      2.22646871	      4.04607242	      0.00000000	    -17.68317532	     -2.60689404	    -39.99999995	     14.81690184	      9.89004832	     -5.83917032	      0.00000000	     -2.70302485	      5.19281144	     29.04000138	     18.58630341	    -24.03782337	     31.58140205	     28.83777228	    119.74817918	     10.49409338	    -15.58021525	     45.27226743	     83.64211471	    119.74817918
     30.15000000	    -14.09827189	     -3.89842656	    211.80957922	      0.17944703	      1.06488769	     -0.19720600	    -18.27459727	     -2.92260526	     29.95029583	      2.80839537	      2.26008955	      3.82579922	      0.00000000	    -17.69769438	     -2.66368198	    -39.99999995	     14.90655373	      9.78390823	     -5.73272439	      0.00000000	     -2.61644234	      5.29925228	     29.44405167	     18.27285188	    -24.37354179	     31.70216596	     28.48221229	    119.74817918	     10.40745341	    -15.25745582	     45.30420667	     83.92950781	    119.74817918
     30.16666670	    -14.07082230	     -3.95363906	    211.81424396	      0.17888160	      1.06496311	     -0.19823957	    -18.27377989	     -2.91315353	     29.95180011	      2.80731036	      2.25916091	      3.82529882	      0.00000000	    -17.69675881	     -2.68511616	    -39.99999995	     14.89887928	      9.78406448	     -5.73278152	      0.00000000	     -2.61417188	      5.31886846	     29.45095869	     18.26940835	    -24.38134879	     31.70299522	     28.47691302	    119.74817918	     10.39937213	    -15.24798179	     45.30900923	     83.93420936	    119.74817918
     30.18333330	    -14.07196652	     -3.96573459	    211.85814943	      0.17827967	      1.06505572	     -0.19850659	    -18.30327059	     -2.86670003	     29.92090275	      2.82432616	      2.20402392	      3.62440825	      0.00000000	    -17.71924940	     -2.75175001	    -39.99999995	     14.90918514	      9.71388567	     -5.60074272	      0.00000000	     -2.49493428	      5.45293046	     29.89186074	     17.92875087	    -24.66619612	     31.83532464	     28.07399945	    119.74817918	     10.30564928	    -14.99196634	     45.43257523	     84.18661341	    119.74817918
     30.20000000	    -14.04313763	     -4.02260891	    211.86346551	      0.17766575	      1.06510483	     -0.19954618	    -18.30469682	     -2.85964441	     29.92313787	      2.82551277	      2.20240601	      3.62464069	      0.00000000	    -17.71916046	     -2.77518691	    -39.99999995	     14.90097909	      9.71449424	     -5.60133698	      0.00000000	     -2.48939824	      5.47419683	     29.89809145	     17.92699844	    -24.67477369	     31.83533956	     28.06918846	    119.74817918	     10.29928807	    -14.98471235	     45.43660335	     84.19022529	    119.74817918
     30.21666670	    -14.00686189	     -3.97665671	    211.89969309	      0.17675407	      1.06518075	     -0.19967543	    -18.27298276	     -2.78039099	     30.09402592	      2.86471289	      1.96161637	      3.35536382	      0.00000000	    -17.73562991	     -2.83462126	    -39.99999995	     14.81800011	      9.71737023	     -5.43679518	      0.00000000	     -2.21184150	      5.66932279	     30.35270370	     17.54857942	    -24.90164843	     32.00761449	     27.57352162	    119.74817918	     10.26307195	    -14.81811581	     45.76716308	     84.29176236	    119.74817918
